<?xml version="1.0" standalone="no"?>
<!DOCTYPE svg PUBLIC "-//W3C//DTD SVG 20010904//EN"
 "http://www.w3.org/TR/2001/REC-SVG-20010904/DTD/svg10.dtd">
<svg version="1.0" xmlns="http://www.w3.org/2000/svg"
 width="586.000000pt" height="513.000000pt" viewBox="0 0 586.000000 513.000000"
 preserveAspectRatio="xMidYMid meet">

<g transform="translate(0.000000,513.000000) scale(0.100000,-0.100000)"
fill="#000000" stroke="none">
<path d="M0 2565 l0 -2565 2930 0 2930 0 0 2565 0 2565 -2930 0 -2930 0 0
-2565z m1162 2268 c29 -35 40 -80 34 -140 -3 -32 -7 -69 -8 -83 -1 -14 17 -86
39 -160 59 -197 58 -181 18 -213 -19 -15 -47 -49 -62 -75 -25 -42 -28 -56 -27
-137 0 -49 4 -117 8 -151 6 -41 5 -73 -4 -98 -13 -40 -65 -86 -98 -86 -36 0
-125 48 -175 94 -30 28 -61 46 -83 49 -34 6 -73 40 -74 65 0 7 15 54 34 105
19 51 37 102 41 115 9 32 25 17 25 -24 0 -21 4 -33 10 -29 6 3 10 16 10 28 0
12 22 85 49 162 27 77 54 156 61 175 6 19 15 44 20 55 17 40 50 136 50 145 0
6 -7 10 -16 10 -12 0 -14 7 -9 33 12 54 54 151 72 165 24 17 67 15 85 -5z
m-192 -62 c0 -5 -7 -22 -15 -37 -8 -16 -15 -36 -15 -44 -1 -17 -28 -56 -34
-49 -8 8 14 89 30 115 16 24 34 32 34 15z m500 -250 c52 -37 118 -82 147 -100
60 -38 78 -56 64 -65 -9 -6 -89 37 -101 54 -3 4 -9 9 -15 11 -19 8 -305 201
-311 210 -3 5 -2 13 1 19 7 11 65 -24 215 -129z m-169 10 c13 -10 93 -64 177
-120 142 -95 183 -132 130 -115 -13 3 -36 13 -52 21 -22 11 -55 14 -130 12
l-100 -4 -27 80 c-48 144 -48 165 2 126z m444 -181 c7 -12 -12 -50 -26 -50
-16 0 -22 29 -9 45 14 17 26 19 35 5z m81 -36 c40 -33 54 -61 38 -77 -8 -8
-105 93 -98 104 8 14 12 12 60 -27z m-256 -67 c24 -12 72 -50 105 -85 33 -35
74 -69 90 -76 17 -8 55 -24 85 -36 30 -12 69 -28 85 -35 17 -7 116 -48 220
-90 105 -43 210 -87 235 -97 25 -11 54 -24 65 -28 11 -4 76 -31 144 -59 68
-28 127 -48 132 -46 5 3 -6 19 -23 34 -28 25 -30 31 -19 45 17 20 50 20 100 0
38 -15 55 -39 63 -89 3 -19 105 -82 137 -84 22 -2 143 -86 190 -133 23 -24 51
-59 62 -78 11 -19 30 -53 44 -75 118 -194 203 -370 262 -545 57 -169 61 -186
46 -197 -9 -7 -25 -13 -34 -13 -9 0 -29 -14 -43 -31 -23 -27 -26 -40 -26 -103
0 -40 -3 -76 -7 -79 -12 -12 -50 57 -61 113 -16 76 -50 232 -68 310 -9 36 -20
85 -24 110 -5 25 -17 77 -26 115 -9 39 -17 102 -18 141 -1 94 -17 114 -91 114
-41 0 -58 -5 -79 -25 -32 -30 -34 -75 -6 -115 11 -16 29 -71 40 -122 11 -51
31 -142 45 -203 32 -136 39 -175 32 -175 -3 0 -19 24 -36 53 -31 53 -42 68
-133 170 -48 55 -169 158 -214 183 -11 7 -128 71 -259 144 -132 72 -278 153
-325 180 -47 26 -112 62 -145 79 -33 17 -73 39 -90 49 -42 24 -166 92 -255
139 -41 22 -92 50 -112 61 -21 12 -68 38 -105 58 -121 65 -137 76 -181 123
-45 48 -86 125 -96 180 -8 47 10 109 42 138 24 22 33 25 78 20 63 -6 103 -26
163 -81 54 -49 147 -116 161 -116 12 0 13 27 2 32 -5 2 -44 43 -87 91 -49 56
-98 100 -131 119 -30 16 -52 34 -49 39 8 12 62 1 115 -24z m412 -69 c35 -24
67 -46 73 -51 41 -31 355 -245 368 -250 20 -8 23 -27 3 -27 -7 0 -82 46 -165
103 -84 56 -160 107 -169 112 -9 6 -19 12 -22 15 -3 3 -42 29 -87 59 -81 52
-90 61 -76 74 9 10 6 11 75 -35z m-162 -18 c8 0 49 -25 90 -55 66 -48 82 -72
32 -46 -9 5 -51 26 -92 46 -71 35 -120 74 -120 96 0 5 17 -2 37 -16 21 -14 44
-25 53 -25z m-1078 -23 c-5 -12 -22 -61 -37 -109 -15 -48 -31 -85 -36 -82 -13
8 -10 36 6 58 8 11 15 28 15 38 0 10 4 26 9 36 6 9 18 36 28 60 9 24 19 38 21
32 3 -7 0 -22 -6 -33z m-18 -400 c7 -11 7 -37 -2 -87 -7 -39 -12 -91 -12 -117
0 -25 -5 -84 -10 -132 -21 -184 -40 -378 -40 -418 0 -55 -8 -73 -32 -73 -17 0
-19 5 -14 43 6 48 20 190 36 357 6 63 15 149 20 190 5 41 12 117 16 168 7 91
15 106 38 69z m541 -181 c-3 -83 -9 -171 -13 -196 -6 -41 -10 -46 -47 -59 -22
-8 -73 -14 -113 -14 -40 1 -74 -3 -77 -7 -2 -4 5 -16 16 -26 17 -16 36 -18
114 -18 l93 1 -4 -31 c-6 -44 -33 -256 -45 -351 -5 -44 -14 -111 -19 -150 -5
-38 -11 -97 -15 -130 -3 -33 -10 -89 -15 -125 -5 -36 -14 -103 -19 -150 -21
-177 -42 -337 -51 -391 -6 -30 -10 -73 -10 -95 0 -22 -5 -67 -11 -99 -10 -54
-9 -61 15 -105 14 -26 26 -60 26 -75 0 -33 -34 -91 -61 -105 -20 -11 -26 -45
-9 -55 20 -12 41 -74 38 -111 l-3 -39 -81 -5 c-87 -5 -117 -20 -127 -63 -19
-83 -51 -174 -74 -210 l-26 -42 -12 28 c-6 15 -26 40 -45 56 -33 27 -34 31
-38 107 -10 200 -6 267 15 326 12 32 31 71 43 87 18 27 23 29 45 19 19 -8 35
-8 63 0 64 19 70 33 72 157 3 208 7 191 -47 203 -96 21 -144 23 -179 6 -39
-18 -41 -29 -18 -105 8 -30 19 -67 24 -84 4 -16 16 -56 26 -88 15 -50 15 -60
3 -68 -24 -15 -59 -11 -59 8 0 9 -4 30 -9 47 -5 17 -15 56 -21 86 -20 93 -17
89 -58 87 -32 -2 -37 1 -40 22 -2 14 2 42 9 63 10 33 16 38 38 36 27 -3 31 6
17 48 -5 16 1 31 20 53 31 37 33 37 63 9 37 -34 209 -55 212 -25 1 6 1 395 -1
863 -1 469 1 857 4 863 5 8 21 1 48 -21 57 -47 88 -64 129 -72 65 -12 123 24
161 99 l20 39 20 -24 c18 -22 19 -35 13 -174z m163 122 c16 -24 37 -64 47 -91
17 -45 17 -48 0 -67 -27 -29 -32 -25 -38 31 -4 28 -18 75 -32 104 -28 60 -29
65 -15 65 5 0 22 -19 38 -42z m-68 -86 c18 -67 10 -146 -16 -156 -11 -4 -14
14 -14 100 0 108 10 127 30 56z m1840 -392 c0 -16 -7 -20 -30 -20 -32 0 -37 9
-18 28 19 19 48 15 48 -8z m36 -112 c6 -10 41 -158 60 -258 15 -74 57 -259 65
-286 5 -17 9 -40 9 -52 0 -12 7 -41 15 -66 8 -24 12 -51 9 -61 -7 -18 -40 -16
-37 3 3 12 -3 41 -35 192 -11 52 -23 109 -27 125 -3 17 -10 46 -14 65 -5 19
-14 58 -20 85 -5 28 -19 92 -31 144 -11 52 -20 101 -20 108 0 16 16 17 26 1z
m-2589 -344 c-10 -62 -17 -80 -32 -82 -14 -3 -17 1 -12 20 4 13 9 51 13 83 8
85 11 92 30 74 13 -13 13 -25 1 -95z m2297 -152 c2 -10 10 -42 17 -72 6 -30
17 -77 24 -105 13 -55 10 -75 -10 -75 -8 0 -17 15 -20 38 -4 20 -15 81 -26
134 -10 53 -19 99 -19 102 0 12 30 -7 34 -22z m-2338 -62 c-4 -19 -11 -93 -17
-165 -18 -237 -24 -280 -34 -277 -12 3 -11 97 5 312 14 195 14 197 36 179 12
-10 14 -23 10 -49z m74 -53 c0 -75 4 -108 15 -123 18 -24 22 -289 4 -299 -6
-4 -21 2 -33 14 -12 12 -27 21 -33 21 -17 0 -19 24 -11 114 4 45 9 128 13 186
9 158 14 190 31 190 11 0 14 -20 14 -103z m3710 13 c91 -6 173 -13 183 -16 17
-5 18 -18 12 -192 -7 -232 -13 -284 -27 -258 -9 16 -13 314 -5 391 2 18 -8 21
-98 31 -55 7 -133 14 -175 16 l-75 3 -6 -47 c-4 -25 -12 -151 -18 -280 -11
-220 -23 -298 -45 -298 -5 0 -6 41 -2 108 4 59 11 181 16 272 9 156 17 239 26
268 4 14 5 14 214 2z m-335 -55 c-1 -27 -6 -102 -13 -165 -24 -239 -32 -350
-32 -473 0 -127 0 -128 -25 -137 -13 -5 -120 -11 -237 -12 l-213 -3 2 125 c2
69 7 166 12 215 6 50 15 158 22 240 16 208 18 217 54 226 17 4 104 12 194 18
90 6 167 13 170 16 3 3 19 5 36 3 29 -3 30 -5 30 -53z m-972 -88 c24 -43 69
-154 147 -369 l28 -77 -15 -123 c-9 -68 -17 -125 -19 -127 -8 -9 -14 8 -39
109 -32 130 -38 154 -65 260 -13 47 -26 119 -30 160 -10 99 -24 147 -49 174
-21 22 -27 47 -15 59 9 9 27 -12 57 -66z m1402 33 c4 -6 3 -65 0 -130 -7 -107
-10 -120 -26 -120 -10 0 -24 7 -31 15 -37 45 -67 65 -110 76 l-48 13 0 67 c0
54 4 70 18 78 23 14 189 14 197 1z m222 -57 c12 -32 18 -74 18 -128 0 -86 -6
-94 -61 -81 l-24 6 6 113 c3 61 7 118 10 125 8 27 33 10 51 -35z m-1280 5 c14
-19 29 -80 25 -100 -2 -9 -10 -19 -18 -22 -10 -4 -14 3 -14 29 0 37 -21 65
-51 65 -10 0 -19 5 -19 10 0 6 9 10 19 10 11 0 23 5 26 10 8 14 21 13 32 -2z
m-400 -30 c11 -13 28 -138 19 -138 -2 0 -12 -3 -21 -7 -15 -5 -16 -1 -11 24 4
18 1 48 -8 73 -14 42 -13 60 3 60 5 0 13 -6 18 -12z m435 -140 c2 -7 1 -29 -2
-48 l-6 -35 -17 33 c-14 26 -16 37 -6 48 14 17 26 18 31 2z m-392 -85 c6 -21
15 -60 20 -88 4 -27 16 -81 25 -120 68 -294 86 -397 74 -410 -14 -14 -29 13
-29 52 0 18 -4 42 -9 55 -5 13 -16 59 -25 103 -9 44 -21 96 -25 115 -5 19 -14
58 -19 85 -27 132 -44 202 -53 217 -13 25 -12 28 11 28 13 0 22 -11 30 -37z
m1408 -165 l-3 -103 -84 -3 c-49 -2 -88 1 -95 8 -7 7 18 39 80 104 49 51 93
94 97 95 4 0 6 -45 5 -101z m-984 -15 c-3 -43 -9 -125 -15 -182 -5 -58 -9
-191 -9 -298 0 -165 -2 -193 -15 -193 -18 0 -18 -6 -16 265 2 294 20 485 46
485 11 0 12 -16 9 -77z m1274 -16 c-11 -29 -24 -65 -28 -82 -21 -82 -83 -252
-97 -265 -14 -13 -15 -12 -10 10 3 14 9 73 13 132 5 72 12 115 23 132 45 67
103 136 111 131 5 -3 0 -29 -12 -58z m526 -12 c256 -14 292 -18 316 -35 44
-32 64 -84 64 -170 -2 -279 -5 -389 -12 -394 -5 -3 -180 0 -388 6 -208 7 -422
12 -474 13 -52 0 -98 5 -102 10 -10 13 -1 69 22 130 10 28 30 84 45 125 50
140 97 265 112 298 13 31 16 32 72 32 31 0 187 -7 345 -15z m-4786 -231 c42
-158 43 -166 29 -213 -10 -37 -20 -48 -60 -70 -26 -14 -56 -34 -68 -44 -29
-25 -35 -14 -16 30 8 21 21 59 27 85 13 49 30 56 30 13 0 -39 18 -38 29 1 8
28 6 47 -8 88 -10 28 -24 71 -30 96 -7 25 -17 60 -22 77 -14 45 -5 55 33 40
29 -12 34 -21 56 -103z m3979 61 l33 -6 0 -198 c0 -150 -3 -200 -12 -203 -15
-5 -326 10 -346 17 -19 7 -16 392 3 403 14 7 266 -2 322 -13z m-482 -275 l0
-175 -237 -3 c-131 -1 -238 -1 -238 0 0 2 -3 76 -6 164 -5 130 -4 163 7 170
15 10 236 21 384 20 l90 -1 0 -175z m-927 45 c4 -8 6 -60 4 -118 l-3 -105
-157 -6 c-86 -4 -194 -9 -239 -12 -46 -2 -83 -1 -84 3 0 5 -2 52 -4 106 -4
128 -2 130 138 138 195 10 337 8 345 -6z m-2575 -296 c0 -85 -11 -95 -56 -53
-23 21 -27 32 -22 53 7 29 54 83 69 78 5 -2 9 -37 9 -78z m714 49 c15 -14 42
-81 83 -207 51 -153 128 -339 150 -361 3 -3 14 -24 25 -47 23 -48 44 -62 61
-39 6 9 14 16 17 16 12 0 267 -261 267 -274 0 -7 -7 -19 -15 -26 -22 -18 -19
-25 19 -45 19 -11 33 -23 30 -27 -8 -12 -342 -10 -349 2 -4 6 -10 46 -14 89
-5 43 -12 84 -16 91 -5 7 -9 31 -9 53 -1 22 -6 42 -13 44 -17 6 -27 -58 -20
-127 4 -31 4 -60 0 -64 -3 -3 -30 47 -58 112 -29 64 -66 146 -82 182 -17 36
-45 99 -63 140 -18 41 -45 102 -60 135 -16 33 -31 70 -35 83 -11 38 -35 24
-70 -41 -19 -36 -19 -36 2 -79 12 -24 35 -72 51 -108 17 -36 57 -121 89 -190
94 -199 90 -178 51 -257 -26 -53 -42 -73 -73 -90 -53 -30 -74 -29 -136 6 -71
39 -140 110 -175 179 -25 52 -28 67 -28 162 -1 86 3 116 22 165 24 61 86 166
124 210 16 19 124 246 151 318 9 24 46 21 74 -5z m3728 -18 c132 -6 312 -10
401 -10 220 0 312 -8 318 -29 9 -28 -12 -95 -36 -115 -22 -18 -54 -18 -1078
-12 -996 7 -1056 8 -1073 25 -25 25 -42 102 -25 112 12 8 345 14 553 10 74 -2
96 2 125 18 33 19 49 20 305 15 149 -3 378 -9 510 -14z m-4617 2 c-1 -4 -17
-37 -34 -72 -54 -110 -70 -200 -42 -228 7 -7 39 -12 72 -13 34 0 70 -4 81 -8
27 -11 -37 -21 -133 -21 l-72 0 -48 -66 c-27 -36 -57 -89 -68 -117 -32 -89
-22 -273 19 -324 7 -9 52 -13 156 -14 80 -1 157 -4 171 -8 50 -14 -3 -25 -150
-32 -80 -4 -146 -8 -147 -8 -14 -5 8 -36 63 -88 70 -66 71 -77 1 -42 -56 28
-81 59 -127 154 -95 200 -79 365 54 535 28 36 48 74 56 110 20 82 64 174 102
214 30 33 55 47 46 28z m2754 -87 c2 -44 -1 -80 -7 -84 -7 -5 -432 -7 -477 -2
-25 3 -45 100 -27 132 10 20 31 22 331 27 l176 3 4 -76z m194 -47 c4 -10 10
-18 15 -18 5 0 9 -4 9 -10 0 -20 -38 -9 -54 15 -16 25 -22 86 -8 99 4 4 13 -9
20 -31 6 -21 15 -46 18 -55z m1949 -153 c66 -7 176 -25 245 -38 69 -14 142
-28 164 -32 57 -10 129 -85 150 -157 18 -63 21 -138 6 -138 -5 0 -10 9 -10 20
0 37 -57 144 -96 182 -38 36 -43 38 -179 59 -77 12 -162 25 -190 30 -66 12
-162 26 -255 38 -91 13 -405 13 -515 1 -44 -5 -156 -14 -250 -19 -315 -19
-326 -20 -375 -47 -104 -57 -142 -193 -107 -379 23 -120 65 -193 123 -215 15
-6 357 -10 877 -10 834 0 853 1 885 20 47 29 51 25 12 -15 -24 -25 -45 -36
-74 -39 -23 -3 -528 -7 -1124 -9 -1014 -3 -1085 -2 -1111 14 -61 37 -51 39
203 39 239 0 292 7 231 30 -15 6 -129 10 -260 10 -128 0 -240 3 -249 6 -9 3
-16 12 -16 20 0 12 44 14 257 14 247 0 256 1 240 18 -15 17 -40 19 -269 21
-227 2 -300 9 -257 26 8 3 124 6 259 7 224 3 245 4 248 21 3 16 -15 17 -262
17 -228 0 -266 2 -266 15 0 12 37 15 253 17 216 3 252 5 252 18 0 13 -33 15
-249 11 -198 -3 -250 -1 -257 10 -4 7 -5 17 -3 21 3 4 120 8 260 8 219 0 254
2 254 15 0 13 -35 15 -255 15 -163 0 -255 4 -255 10 0 6 -1 13 -2 18 -2 4 112
9 252 12 218 4 255 7 255 20 0 13 -34 15 -250 15 -230 0 -250 1 -253 18 -3 16
14 17 253 17 239 0 256 1 253 18 -3 16 -23 17 -243 17 -207 0 -240 2 -240 15
0 13 36 15 253 18 156 1 252 6 252 12 0 6 -81 10 -212 11 -268 1 -263 1 -263
19 0 13 35 15 255 15 233 0 255 1 258 17 3 16 -15 18 -235 20 -154 2 -236 7
-233 13 3 6 99 11 250 12 135 1 253 2 263 2 9 1 17 6 17 11 0 6 -79 10 -217
10 -206 0 -263 6 -233 25 7 4 207 9 444 10 280 1 459 6 511 15 206 31 590 34
830 5z m-2035 -14 c0 -21 -30 -24 -194 -22 -309 3 -565 -38 -645 -105 -36 -30
-81 -100 -97 -151 -15 -50 -19 -169 -8 -230 6 -34 6 -36 -17 -30 -13 4 -111 7
-216 7 -156 0 -193 3 -193 14 0 17 59 23 244 25 77 1 144 5 148 7 30 19 -26
24 -229 24 -124 -1 -228 1 -231 5 -19 18 44 25 241 25 203 0 218 1 215 18 -3
15 -23 17 -233 19 -240 2 -271 5 -260 22 4 7 86 11 244 11 187 0 241 3 250 13
6 8 8 17 4 20 -3 4 -116 7 -250 7 -209 0 -243 2 -243 15 0 13 33 15 234 15
129 0 241 3 250 6 9 3 16 12 16 20 0 12 -42 14 -246 14 -192 0 -245 3 -242 13
4 9 66 13 257 15 195 2 252 5 248 15 -3 9 -62 12 -243 12 -206 0 -239 2 -239
15 0 13 38 16 265 20 345 7 359 24 23 28 -151 1 -243 6 -243 12 0 12 -22 11
272 10 235 -1 247 0 257 18 10 20 6 20 -206 21 -119 1 -220 4 -225 8 -6 3 -5
10 2 17 7 7 91 11 266 12 140 1 258 5 261 8 4 3 -21 6 -54 6 -33 0 -89 3 -124
7 -137 15 -3 21 464 22 292 1 477 -3 477 -8z m-2660 -84 c0 -1 -9 -27 -19 -57
-11 -30 -22 -76 -25 -102 -3 -27 -9 -68 -12 -93 -3 -25 -9 -45 -13 -45 -10 0
-31 61 -31 91 0 13 -7 37 -15 53 -8 15 -15 45 -15 65 0 31 5 40 28 50 15 7 38
19 52 26 23 12 50 19 50 12z m4229 -94 c430 -2 648 0 655 7 5 5 19 10 31 10
19 0 18 -2 -5 -20 -14 -11 -38 -24 -55 -29 -16 -5 -304 -12 -640 -15 l-610 -5
-40 35 c-40 36 -40 36 -10 28 17 -4 320 -9 674 -11z m-1667 -85 c2 -6 26 -14
54 -17 44 -5 49 -8 49 -31 0 -25 -1 -25 -92 -28 -51 -1 -93 1 -93 6 0 5 9 17
20 27 11 10 22 26 25 36 7 21 31 26 37 7z m2292 -227 c70 -1 66 -11 -12 -28
-76 -16 -1143 -18 -1193 -2 -67 21 -66 21 -47 28 14 5 998 7 1252 2z m-3106
-112 c22 -50 85 -119 110 -119 6 0 12 -4 12 -10 0 -6 -72 -10 -195 -10 -123 0
-195 4 -195 10 0 6 55 10 145 10 80 0 145 4 145 8 0 27 -30 32 -193 32 -158 0
-215 8 -202 29 3 5 83 9 177 9 150 0 173 2 176 16 2 9 2 17 0 18 -2 1 -86 4
-188 7 -152 5 -185 9 -185 20 0 12 30 15 169 18 93 2 172 5 174 8 15 14 30 0
50 -46z m532 -71 c0 -5 -20 -8 -45 -8 -50 0 -54 6 -24 38 l20 23 25 -23 c13
-13 24 -26 24 -30z"/>
<path d="M4004 2432 c-5 -4 -34 -38 -64 -77 -30 -38 -57 -72 -60 -75 -3 -3
-46 -57 -95 -120 -49 -63 -92 -117 -95 -120 -21 -19 -111 -142 -118 -161 -4
-13 -8 -64 -7 -114 l0 -90 36 -3 c37 -3 59 16 234 203 26 28 68 73 95 101 l49
51 11 99 c14 120 30 307 27 311 -2 1 -7 -1 -13 -5z"/>
<path d="M3835 1823 c-124 -130 -146 -159 -117 -157 6 1 25 2 41 3 23 1 45 20
116 101 77 89 105 137 105 177 0 7 -4 13 -8 13 -4 0 -66 -62 -137 -137z"/>
<path d="M5367 1786 c-9 -22 -9 -163 -1 -194 6 -22 10 -23 98 -20 l91 3 2 102
c1 56 -2 105 -6 108 -5 2 -47 8 -93 11 -75 6 -86 5 -91 -10z"/>
<path d="M4282 1577 l-82 -82 0 -68 c0 -37 3 -67 8 -67 4 1 23 20 42 44 19 24
72 87 118 140 45 54 82 102 82 107 0 5 -19 9 -43 9 -40 0 -47 -5 -125 -83z"/>
<path d="M4404 1513 c-27 -32 -68 -78 -91 -103 -23 -25 -39 -48 -35 -52 12
-12 178 -22 185 -11 11 18 12 216 1 220 -6 2 -33 -22 -60 -54z"/>
<path d="M3818 1561 c-26 -4 -49 -9 -52 -11 -187 -181 -206 -203 -206 -242 0
-38 0 -38 39 -38 32 0 48 8 92 47 30 27 56 50 59 53 7 7 83 74 153 135 31 27
57 53 57 57 0 9 -74 8 -142 -1z"/>
<path d="M3910 1477 c-25 -23 -79 -71 -120 -107 -95 -83 -108 -100 -75 -100
26 0 265 214 265 237 0 24 -24 14 -70 -30z"/>
</g>
</svg>
